<svg width="120" height="120" viewBox="0 0 120 120" fill="none" xmlns="http://www.w3.org/2000/svg">
  <rect width="120" height="120" rx="16" fill="url(#paint0_linear)" />
  <path d="M31.6 74.4V43.6H43.2C47.6667 43.6 51.0667 44.4 53.4 46C55.7333 47.6 56.9 50 56.9 53.2C56.9 55.0667 56.4 56.6667 55.4 58C54.4 59.3333 53 60.3333 51.2 61C53.4667 61.4 55.2333 62.4 56.5 64C57.7667 65.6 58.4 67.5333 58.4 69.8C58.4 73.2667 57.1667 75.9333 54.7 77.8C52.2333 79.6667 48.8667 80.6 44.6 80.6H31.6V74.4ZM38.9 58.7H43.5C45.5 58.7 47 58.2667 48 57.4C49 56.5333 49.5 55.3333 49.5 53.8C49.5 52.2 49 50.9667 48 50.1C47 49.2333 45.5 48.8 43.5 48.8H38.9V58.7ZM38.9 75.4H44.5C46.7 75.4 48.3667 74.9 49.5 73.9C50.6333 72.9 51.2 71.5333 51.2 69.8C51.2 68.0667 50.6333 66.7 49.5 65.7C48.3667 64.7 46.7 64.2 44.5 64.2H38.9V75.4Z" fill="white"/>
  <path d="M63.6 80.6V43.6H89.6V49.8H70.9V58.5H87.5V64.7H70.9V74.4H89.6V80.6H63.6Z" fill="white"/>
  <defs>
    <linearGradient id="paint0_linear" x1="0" y1="0" x2="120" y2="120" gradientUnits="userSpaceOnUse">
      <stop stop-color="#4FACFE"/>
      <stop offset="1" stop-color="#00F2FE"/>
    </linearGradient>
  </defs>
</svg> 